:FULLY-SPECIFIED
:FORCE-ALL-JOINTS-BE-3DOF
:DEGREES
510
root 5.8801 15.7595 -5.36097 179.243 81.6185 173.341
lfemur -29.5235 -12.4964 -22.3218
ltibia 59.0593 -0 0
lfoot -27.6341 -3.36003 -0.110762
ltoes 8.1036 -0 0
rfemur -51.1874 0.646028 4.8631
rtibia 70.7071 -0 0
rfoot 7.11402 5.93258 0.0058476
rtoes -26.1347 0 0
lowerback 7.49613 0.274237 -0.308364
upperback 2.35222 0.776098 3.15285
thorax -1.81737 0.467188 3.3824
lowerneck -7.0534 -11.8249 -3.2285
upperneck 8.95776 -15.7672 3.82054
head 4.71835 -7.66559 0.611326
lclavicle 2.29346e-14 1.69733e-14 -1.35043e-29
lhumerus -46.7396 -27.6973 112.169
lradius 57.4345 -0 0
lwrist 11.2809 0 0
lhand -4.80886 -1.69454 0.339308
lfingers 7.12502 -0 0
lthumb 20.9333 26.6484 0.184781
rclavicle 2.29346e-14 1.69733e-14 -1.35043e-29
rhumerus -24.2723 19.9029 -91.0828
rradius 100.024 -0 0
rwrist -2.9568 0 0
rhand -19.5531 -22.4592 0.19428
rfingers 7.12502 -0 0
rthumb 6.76678 -52.1399 0.202269
511
root 5.97828 15.6889 -5.27837 179.796 79.8706 174.058
lfemur -29.6459 -12.148 -22.2171
ltibia 60.4076 -0 0
lfoot -28.1195 -3.21665 -0.114458
ltoes 7.08393 -0 0
rfemur -50.9345 0.425978 4.2682
rtibia 69.7351 -0 0
rfoot 6.59492 5.9255 0.00604275
rtoes -27.1362 0 0
lowerback 7.80573 0.348139 -0.224589
upperback 2.57722 0.915674 3.40015
thorax -1.76672 0.544518 3.58067
lowerneck -6.8898 -12.112 -3.43183
upperneck 9.19508 -16.1534 4.00995
head 4.80321 -7.84687 0.662556
lclavicle 2.66197e-14 1.92734e-14 -1.39544e-29
lhumerus -46.5392 -27.3109 112.021
lradius 57.593 -0 0
lwrist 12.0089 0 0
lhand -5.8165 -1.90676 0.350674
lfingers 7.12502 -0 0
lthumb 19.9649 26.5282 0.190968
rclavicle 2.66197e-14 1.92734e-14 -1.39544e-29
rhumerus -22.1935 19.4576 -90.6589
rradius 102.245 -0 0
rwrist -5.73145 0 0
rhand -20.2341 -22.6386 0.20077
rfingers 7.12502 -0 0
rthumb 6.10937 -52.3334 0.209026
512
root 6.07765 15.6175 -5.19477 -179.833 78.1006 174.594
lfemur -29.769 -11.7953 -22.1121
ltibia 61.7723 -0 0
lfoot -28.6108 -3.07151 -0.116963
ltoes 6.05186 -0 0
rfemur -50.6763 0.205939 3.66509
rtibia 68.7513 -0 0
rfoot 6.06951 5.91834 0.00617497
rtoes -28.15 0 0
lowerback 8.11919 0.422475 -0.139391
upperback 2.80557 1.05596 3.65103
thorax -1.71519 0.62261 3.78142
lowerneck -6.72295 -12.402 -3.63874
upperneck 9.43442 -16.545 4.20034
head 4.88897 -8.03042 0.714156
lclavicle 3.03496e-14 2.16014e-14 -1.42593e-29
lhumerus -46.3382 -26.9192 111.873
lradius 57.7534 -0 0
lwrist 12.7457 0 0
lhand -6.83642 -2.12174 0.358377
lfingers 7.12502 -0 0
lthumb 18.9846 26.4065 0.19516
rclavicle 3.03496e-14 2.16014e-14 -1.42593e-29
rhumerus -20.0988 18.9924 -90.2488
rradius 104.493 -0 0
rwrist -8.53983 0 0
rhand -20.9234 -22.8202 0.205168
rfingers 7.12502 -0 0
rthumb 5.44394 -52.5293 0.213604
513
root 6.17773 15.5455 -5.11057 -179.579 76.3173 175.017
lfemur -29.8921 -11.4397 -22.0072
ltibia 63.1468 -0 0
lfoot -29.1056 -2.9253 -0.118227
ltoes 5.01235 -0 0
rfemur -50.4139 -0.0129237 3.05664
rtibia 67.7604 -0 0
rfoot 5.5403 5.91112 0.00624172
rtoes -29.1711 0 0
lowerback 8.43505 0.49688 -0.0531629
upperback 3.0362 1.19624 3.90429
thorax -1.663 0.701082 3.98369
lowerneck -6.55365 -12.6934 -3.84822
upperneck 9.6746 -16.9402 4.39077
head 4.97522 -8.21538 0.765871
lclavicle 3.41065e-14 2.39462e-14 -1.44132e-29
lhumerus -46.1377 -26.5243 111.726
lradius 57.915 -0 0
lwrist 13.4878 0 0
lhand -7.86372 -2.33836 0.362266
lfingers 7.12502 -0 0
lthumb 17.9972 26.2838 0.197277
rclavicle 3.41065e-14 2.39462e-14 -1.44132e-29
rhumerus -17.9985 18.5099 -89.8553
rradius 106.757 -0 0
rwrist -11.3685 0 0
rhand -21.6177 -23.0032 0.207389
rfingers 7.12502 -0 0
rthumb 4.7737 -52.7266 0.215915
514
root 6.27804 15.4734 -5.02618 -179.402 74.5295 175.362
lfemur -30.0147 -11.0831 -21.903
ltibia 64.5246 -0 0
lfoot -29.6016 -2.77874 -0.118227
ltoes 3.97037 -0 0
rfemur -50.1485 -0.229497 2.44574
rtibia 66.7671 -0 0
rfoot 5.00984 5.90388 0.00624172
rtoes -30.1945 0 0
lowerback 8.75179 0.570984 0.0336828
upperback 3.26801 1.33584 4.15874
thorax -1.61041 0.779555 4.18652
lowerneck -6.38264 -12.9849 -4.05934
upperneck 9.91448 -17.3371 4.58032
head 5.06155 -8.40085 0.817452
lclavicle 3.78722e-14 2.62966e-14 -1.44132e-29
lhumerus -45.9385 -26.128 111.58
lradius 58.077 -0 0
lwrist 14.2317 0 0
lhand -8.89348 -2.55554 0.362266
lfingers 7.12502 -0 0
lthumb 17.0075 26.1608 0.197277
rclavicle 3.78722e-14 2.62966e-14 -1.44132e-29
rhumerus -15.9027 18.0129 -89.4809
rradius 109.026 -0 0
rwrist -14.2038 0 0
rhand -22.3136 -23.1867 0.207389
rfingers 7.12502 -0 0
rthumb 4.10186 -52.9244 0.215915
515
root 6.37811 15.4014 -4.94201 -179.28 72.7456 175.654
lfemur -30.1362 -10.7272 -21.7999
ltibia 65.8991 -0 0
lfoot -30.0964 -2.63253 -0.116963
ltoes 2.93086 -0 0
rfemur -49.8815 -0.442721 1.83529
rtibia 65.7762 -0 0
rfoot 4.48063 5.89666 0.00617497
rtoes -31.2156 0 0
lowerback 9.06788 0.644432 0.12073
upperback 3.4999 1.47407 4.41316
thorax -1.55767 0.857656 4.38894
lowerneck -6.21075 -13.2751 -4.27109
upperneck 10.1529 -17.7339 4.76809
head 5.14754 -8.58596 0.868653
lclavicle 4.16291e-14 2.86414e-14 -1.42593e-29
lhumerus -45.7415 -25.7322 111.437
lradius 58.2386 -0 0
lwrist 14.9739 0 0
lhand -9.92078 -2.77217 0.358377
lfingers 7.12502 -0 0
lthumb 16.0202 26.0381 0.19516
rclavicle 4.16291e-14 2.86414e-14 -1.42593e-29
rhumerus -13.8211 17.5045 -89.1277
rradius 111.29 -0 0
rwrist -17.0325 0 0
rhand -23.0079 -23.3697 0.205168
rfingers 7.12502 -0 0
rthumb 3.43162 -53.1217 0.213604
516
root 6.47745 15.33 -4.85844 -179.197 70.9744 175.906
lfemur -30.256 -10.3735 -21.6985
ltibia 67.2638 -0 0
lfoot -30.5877 -2.48739 -0.114458
ltoes 1.89879 -0 0
rfemur -49.6141 -0.65159 1.22821
rtibia 64.7924 -0 0
rfoot 3.95522 5.8895 0.00604275
rtoes -32.2294 0 0
lowerback 9.3818 0.716874 0.207548
upperback 3.73075 1.61029 4.66632
thorax -1.50504 0.935013 4.58999
lowerneck -6.03876 -13.5627 -4.48248
upperneck 10.3889 -18.1285 4.95321
head 5.2328 -8.76982 0.919234
lclavicle 4.5359e-14 3.09695e-14 -1.39544e-29
lhumerus -45.5477 -25.3388 111.297
lradius 58.399 -0 0
lwrist 15.7107 0 0
lhand -10.9407 -2.98714 0.350674
lfingers 7.12502 -0 0
lthumb 15.0399 25.9164 0.190968
rclavicle 4.5359e-14 3.09695e-14 -1.39544e-29
rhumerus -11.7635 16.988 -88.7973
rradius 113.538 -0 0
rwrist -19.8409 0 0
rhand -23.6972 -23.5513 0.20077
rfingers 7.12502 -0 0
rthumb 2.76619 -53.3176 0.209026
517
root 6.57559 15.2593 -4.77588 -179.143 69.2244 176.127
lfemur -30.3737 -10.0239 -21.5991
ltibia 68.6121 -0 0
lfoot -31.0731 -2.34402 -0.110762
ltoes 0.879118 -0 0
rfemur -49.3478 -0.855155 0.627437
rtibia 63.8204 -0 0
rfoot 3.43612 5.88242 0.0058476
rtoes -33.2309 0 0
lowerback 9.69208 0.787978 0.293716
upperback 3.95943 1.74387 4.91699
thorax -1.45276 1.01126 4.7887
lowerneck -5.86758 -13.8462 -4.69245
upperneck 10.6212 -18.5191 5.13484
head 5.31691 -8.95155 0.96896
lclavicle 4.90441e-14 3.32695e-14 -1.35043e-29
lhumerus -45.3578 -24.9497 111.161
lradius 58.5575 -0 0
lwrist 16.4387 0 0
lhand -11.9483 -3.19937 0.339308
lfingers 7.12502 -0 0
lthumb 14.0715 25.7962 0.184781
rclavicle 4.90441e-14 3.32695e-14 -1.35043e-29
rhumerus -9.73921 16.467 -88.491
rradius 115.759 -0 0
rwrist -22.6155 0 0
rhand -24.3782 -23.7307 0.19428
rfingers 7.12502 -0 0
rthumb 2.10878 -53.5111 0.202269
518
root 6.67206 15.1899 -4.69473 -179.112 67.5041 176.325
lfemur -30.4886 -9.68006 -21.5022
ltibia 69.9374 -0 0
lfoot -31.5502 -2.20312 -0.105945
ltoes -0.123192 0 0
rfemur -49.0839 -1.05252 0.0359467
rtibia 62.8649 -0 0
rfoot 2.92585 5.87547 0.00559328
rtoes -34.2155 0 0
lowerback 9.99717 0.857416 0.378792
upperback 4.18479 1.87419 5.16393
thorax -1.40112 1.08603 4.98409
lowerneck -5.69807 -14.1242 -4.89994
upperneck 10.8488 -18.9037 5.31215
head 5.39948 -9.13024 1.0176
lclavicle 5.26665e-14 3.55304e-14 -1.29177e-29
lhumerus -45.1728 -24.5668 111.028
lradius 58.7134 -0 0
lwrist 17.1543 0 0
lhand -12.9388 -3.40775 0.324499
lfingers 7.12502 -0 0
lthumb 13.1195 25.6782 0.17672
rclavicle 5.26665e-14 3.55304e-14 -1.29177e-29
rhumerus -7.75749 15.945 -88.2095
rradius 117.942 -0 0
rwrist -25.3429 0 0
rhand -25.0476 -23.907 0.185822
rfingers 7.12502 -0 0
rthumb 1.46258 -53.7012 0.193464
519
root 6.76637 15.122 -4.6154 -179.097 65.8221 176.503
lfemur -30.6003 -9.3437 -21.4082
ltibia 71.2332 -0 0
lfoot -32.0166 -2.0654 -0.100102
ltoes -1.10318 0 0
rfemur -48.824 -1.24284 -0.543285
rtibia 61.9307 -0 0
rfoot 2.42695 5.86867 0.00528475
rtoes -35.1781 0 0
lowerback 10.2956 0.924867 0.46233
upperback 4.4057 2.00068 5.40588
thorax -1.35039 1.15896 5.17521
lowerneck -5.53113 -14.3955 -5.10387
upperneck 11.0706 -19.2804 5.48435
head 5.4801 -9.30503 1.06493
lclavicle 5.62082e-14 3.7741e-14 -1.22059e-29
lhumerus -44.9934 -24.1921 110.9
lradius 58.8657 -0 0
lwrist 17.8539 0 0
lhand -13.9071 -3.61121 0.30654
lfingers 7.12502 -0 0
lthumb 12.1887 25.5629 0.166944
rclavicle 5.62082e-14 3.7741e-14 -1.22059e-29
rhumerus -5.82743 15.4259 -87.9532
rradius 120.076 -0 0
rwrist -28.0096 0 0
rhand -25.702 -24.0792 0.175562
rfingers 7.12502 -0 0
rthumb 0.83081 -53.8869 0.182784
520
root 6.85806 15.056 -4.53829 -179.095 64.1869 176.664
lfemur -30.7082 -9.01654 -21.3176
ltibia 72.493 -0 0
lfoot -32.4701 -1.93155 -0.0933449
ltoes -2.05589 0 0
rfemur -48.5694 -1.42534 -1.10726
rtibia 61.0225 -0 0
rfoot 1.94186 5.86206 0.00492801
rtoes -36.1139 0 0
lowerback 10.5858 0.990022 0.543879
upperback 4.62097 2.12274 5.64157
thorax -1.30083 1.2297 5.36107
lowerneck -5.36769 -14.6586 -5.30314
upperneck 11.2856 -19.6472 5.65068
head 5.55837 -9.47501 1.11072
lclavicle 5.96514e-14 3.989e-14 -1.1383e-29
lhumerus -44.8203 -23.8275 110.778
lradius 59.0138 -0 0
lwrist 18.5341 0 0
lhand -14.8484 -3.8087 0.285787
lfingers 7.12502 -0 0
lthumb 11.2839 25.451 0.155647
rclavicle 5.96514e-14 3.989e-14 -1.1383e-29
rhumerus -3.95799 14.9137 -87.7222
rradius 122.151 -0 0
rwrist -30.602 0 0
rhand -26.3382 -24.2465 0.163702
rfingers 7.12502 -0 0
rthumb 0.216659 -54.0674 0.170438
521
root 6.94663 14.9922 -4.46379 -179.102 62.607 176.812
lfemur -30.8119 -8.7003 -21.2308
ltibia 73.7101 -0 0
lfoot -32.9082 -1.8023 -0.0858119
ltoes -2.97637 0 0
rfemur -48.3217 -1.59927 -1.65296
rtibia 60.1451 -0 0
rfoot 1.47326 5.85568 0.0045303
rtoes -37.018 0 0
lowerback 10.8662 1.05258 0.622981
upperback 4.82945 2.23983 5.86973
thorax -1.25273 1.2979 5.5407
lowerneck -5.2087 -14.9124 -5.49664
upperneck 11.4927 -20.0022 5.81033
head 5.6339 -9.6393 1.15477
lclavicle 6.2978e-14 4.19663e-14 -1.04652e-29
lhumerus -44.6544 -23.4749 110.661
lradius 59.1569 -0 0
lwrist 19.1913 0 0
lhand -15.7577 -3.99915 0.262657
lfingers 7.12502 -0 0
lthumb 10.4097 25.3431 0.143055
rclavicle 6.2978e-14 4.19663e-14 -1.04652e-29
rhumerus -2.15802 14.4121 -87.516
rradius 124.155 -0 0
rwrist -33.1067 0 0
rhand -26.9529 -24.408 0.15048
rfingers 7.12502 -0 0
rthumb -0.37667 -54.2416 0.156673
